<svg id="visual" viewBox="0 0 960 540" width="960" height="540" xmlns="http://www.w3.org/2000/svg" xmlns:xlink="http://www.w3.org/1999/xlink" version="1.1"><rect x="0" y="0" width="960" height="540" fill="#000000"></rect><path d="M0 329L137 360L274 333L411 398L549 384L686 368L823 388L960 337L960 541L823 541L686 541L549 541L411 541L274 541L137 541L0 541Z" fill="#c62368"></path><path d="M0 429L137 402L274 370L411 397L549 358L686 395L823 390L960 358L960 541L823 541L686 541L549 541L411 541L274 541L137 541L0 541Z" fill="#d53867"></path><path d="M0 425L137 424L274 458L411 434L549 406L686 444L823 394L960 444L960 541L823 541L686 541L549 541L411 541L274 541L137 541L0 541Z" fill="#e34c67"></path><path d="M0 469L137 436L274 453L411 446L549 488L686 443L823 458L960 453L960 541L823 541L686 541L549 541L411 541L274 541L137 541L0 541Z" fill="#ef5f67"></path><path d="M0 492L137 505L274 478L411 503L549 509L686 502L823 485L960 481L960 541L823 541L686 541L549 541L411 541L274 541L137 541L0 541Z" fill="#fa7268"></path></svg>