<svg id="visual" viewBox="0 0 960 540" width="960" height="540" xmlns="http://www.w3.org/2000/svg" xmlns:xlink="http://www.w3.org/1999/xlink" version="1.1"><rect x="0" y="0" width="960" height="540" fill="#000"></rect><path d="M0 343L137 386L274 351L411 383L549 394L686 331L823 350L960 393L960 541L823 541L686 541L549 541L411 541L274 541L137 541L0 541Z" fill="#0066ff"></path><path d="M0 368L137 409L274 415L411 402L549 374L686 405L823 411L960 409L960 541L823 541L686 541L549 541L411 541L274 541L137 541L0 541Z" fill="#005acc"></path><path d="M0 406L137 457L274 411L411 450L549 424L686 445L823 445L960 459L960 541L823 541L686 541L549 541L411 541L274 541L137 541L0 541Z" fill="#004b99"></path><path d="M0 486L137 439L274 441L411 460L549 469L686 464L823 460L960 476L960 541L823 541L686 541L549 541L411 541L274 541L137 541L0 541Z" fill="#003865"></path><path d="M0 482L137 515L274 480L411 493L549 479L686 482L823 506L960 480L960 541L823 541L686 541L549 541L411 541L274 541L137 541L0 541Z" fill="#002233"></path></svg>